{
  "asset": {
    "version": "2.0",
    "generator": "THREE.GLTFExporter"
  },
  "scenes": [
    {
      "nodes": [
        0
      ]
    }
  ],
  "scene": 0,
  "nodes": [
    {
      "children": [
        9
      ],
      "matrix": [
        0.01,
        0,
        0,
        0,
        0,
        0.01,
        0,
        0,
        0,
        0,
        0.01,
        0,
        0,
        0,
        0,
        1
      ]
    },
    {
      "matrix": [
        0.9999999999999999,
        0,
        0,
        0,
        0,
        2.220446049250438e-16,
        0.5555555555555552,
        0,
        0,
        -1.0000000000000564,
        1.2335811384723952e-16,
        0,
        41.05730475667285,
        -62.240889712920556,
        -31.8185391366631,
        0.9999999999999999
      ],
      "name": "Cylinder 4",
      "mesh": 0
    },
    {
      "matrix": [
        1,
        0,
        0,
        0,
        0,
        2.2204460492504373e-16,
        0.5555555555555551,
        0,
        0,
        -1.0000000000000562,
        1.2335811384723952e-16,
        0,
        41.057304756672856,
        -62.24088971292056,
        30.391761221816235,
        1
      ],
      "name": "Cylinder 3",
      "mesh": 1
    },
    {
      "matrix": [
        1,
        0,
        0,
        0,
        0,
        2.2204460492504077e-16,
        0.5555555555555477,
        0,
        0,
        -1.0000000000000429,
        1.2335811384723785e-16,
        0,
        -19.20335872035457,
        -62.240889712920556,
        -31.8185391366631,
        1
      ],
      "name": "Cylinder 4",
      "mesh": 0
    },
    {
      "matrix": [
        1,
        0,
        0,
        0,
        0,
        2.2204460492504077e-16,
        0.5555555555555477,
        0,
        0,
        -1.0000000000000426,
        1.2335811384723785e-16,
        0,
        -19.203358720354572,
        -62.24088971292056,
        30.391761221816243,
        1
      ],
      "name": "Cylinder 2",
      "mesh": 2
    },
    {
      "matrix": [
        1,
        0,
        0,
        0,
        0,
        1,
        0,
        0,
        0,
        0,
        1,
        0,
        -30.479259490966797,
        7.166823550811699,
        -7.087577819824219,
        1
      ],
      "name": "Cube",
      "mesh": 3
    },
    {
      "matrix": [
        1,
        0,
        0,
        0,
        0,
        1,
        0,
        0,
        0,
        0,
        1,
        0,
        77.2793503102605,
        93.40334317460866,
        23.635336207689832,
        1
      ],
      "name": "shopping cart",
      "children": [
        1,
        2,
        3,
        4,
        5
      ]
    },
    {
      "matrix": [
        1,
        0,
        0,
        0,
        0,
        1,
        -5.684341886080802e-17,
        0,
        0,
        5.684341886080802e-17,
        1,
        0,
        35.036911805126884,
        -161.48709081814312,
        1000,
        1
      ],
      "camera": 0
    },
    {
      "matrix": [
        1,
        0,
        0,
        0,
        0,
        1,
        0,
        0,
        0,
        0,
        1,
        0,
        0,
        1,
        0,
        1
      ],
      "name": "Default Ambient Light"
    },
    {
      "name": "Scene",
      "children": [
        6,
        7,
        8
      ]
    }
  ],
  "bufferViews": [
    {
      "buffer": 0,
      "byteOffset": 0,
      "byteLength": 31200,
      "target": 34962,
      "byteStride": 12
    },
    {
      "buffer": 0,
      "byteOffset": 31200,
      "byteLength": 31200,
      "target": 34962,
      "byteStride": 12
    },
    {
      "buffer": 0,
      "byteOffset": 62400,
      "byteLength": 20800,
      "target": 34962,
      "byteStride": 8
    },
    {
      "buffer": 0,
      "byteOffset": 83200,
      "byteLength": 30720,
      "target": 34963
    },
    {
      "buffer": 0,
      "byteOffset": 113920,
      "byteLength": 31200,
      "target": 34962,
      "byteStride": 12
    },
    {
      "buffer": 0,
      "byteOffset": 145120,
      "byteLength": 31200,
      "target": 34962,
      "byteStride": 12
    },
    {
      "buffer": 0,
      "byteOffset": 176320,
      "byteLength": 20800,
      "target": 34962,
      "byteStride": 8
    },
    {
      "buffer": 0,
      "byteOffset": 197120,
      "byteLength": 30720,
      "target": 34963
    },
    {
      "buffer": 0,
      "byteOffset": 227840,
      "byteLength": 31200,
      "target": 34962,
      "byteStride": 12
    },
    {
      "buffer": 0,
      "byteOffset": 259040,
      "byteLength": 31200,
      "target": 34962,
      "byteStride": 12
    },
    {
      "buffer": 0,
      "byteOffset": 290240,
      "byteLength": 20800,
      "target": 34962,
      "byteStride": 8
    },
    {
      "buffer": 0,
      "byteOffset": 311040,
      "byteLength": 30720,
      "target": 34963
    },
    {
      "buffer": 0,
      "byteOffset": 341760,
      "byteLength": 139776,
      "target": 34962,
      "byteStride": 12
    },
    {
      "buffer": 0,
      "byteOffset": 481536,
      "byteLength": 139776,
      "target": 34962,
      "byteStride": 12
    },
    {
      "buffer": 0,
      "byteOffset": 621312,
      "byteLength": 69888,
      "target": 34963
    }
  ],
  "buffers": [
    {
      "byteLength": 691200,
      "uri": "data:application/octet-stream;base64,"
    }
  ],
  "accessors": [
    {
      "bufferView": 0,
      "componentType": 5126,
      "count": 2600,
      "max": [
        9,
        9,
        9
      ],
      "min": [
        -9,
        -9,
        -9
      ],
      "type": "VEC3"
    },
    {
      "bufferView": 1,
      "componentType": 5126,
      "count": 2600,
      "max": [
        1,
        1,
        1
      ],
      "min": [
        -1,
        -1,
        -1
      ],
      "type": "VEC3"
    },
    {
      "bufferView": 2,
      "componentType": 5126,
      "count": 2600,
      "max": [
        1,
        1
      ],
      "min": [
        0,
        0
      ],
      "type": "VEC2"
    },
    {
      "bufferView": 3,
      "componentType": 5123,
      "count": 15360,
      "max": [
        2599
      ],
      "min": [
        0
      ],
      "type": "SCALAR"
    },
    {
      "bufferView": 4,
      "componentType": 5126,
      "count": 2600,
      "max": [
        9,
        9,
        9
      ],
      "min": [
        -9,
        -9,
        -9
      ],
      "type": "VEC3"
    },
    {
      "bufferView": 5,
      "componentType": 5126,
      "count": 2600,
      "max": [
        1,
        1,
        1
      ],
      "min": [
        -1,
        -1,
        -1
      ],
      "type": "VEC3"
    },
    {
      "bufferView": 6,
      "componentType": 5126,
      "count": 2600,
      "max": [
        1,
        1
      ],
      "min": [
        0,
        0
      ],
      "type": "VEC2"
    },
    {
      "bufferView": 7,
      "componentType": 5123,
      "count": 15360,
      "max": [
        2599
      ],
      "min": [
        0
      ],
      "type": "SCALAR"
    },
    {
      "bufferView": 8,
      "componentType": 5126,
      "count": 2600,
      "max": [
        9,
        9,
        9
      ],
      "min": [
        -9,
        -9,
        -9
      ],
      "type": "VEC3"
    },
    {
      "bufferView": 9,
      "componentType": 5126,
      "count": 2600,
      "max": [
        1,
        1,
        1
      ],
      "min": [
        -1,
        -1,
        -1
      ],
      "type": "VEC3"
    },
    {
      "bufferView": 10,
      "componentType": 5126,
      "count": 2600,
      "max": [
        1,
        1
      ],
      "min": [
        0,
        0
      ],
      "type": "VEC2"
    },
    {
      "bufferView": 11,
      "componentType": 5123,
      "count": 15360,
      "max": [
        2599
      ],
      "min": [
        0
      ],
      "type": "SCALAR"
    },
    {
      "bufferView": 12,
      "componentType": 5126,
      "count": 11648,
      "max": [
        107.66546630859375,
        64.00022888183594,
        51.09473419189453
      ],
      "min": [
        -51.520442962646484,
        -60.62632369995117,
        -36.9124641418457
      ],
      "type": "VEC3"
    },
    {
      "bufferView": 13,
      "componentType": 5126,
      "count": 11648,
      "max": [
        1,
        1,
        1
      ],
      "min": [
        -1,
        -1,
        -1
      ],
      "type": "VEC3"
    },
    {
      "bufferView": 14,
      "componentType": 5125,
      "count": 17472,
      "max": [
        11647
      ],
      "min": [
        0
      ],
      "type": "SCALAR"
    }
  ],
  "meshes": [
    {
      "primitives": [
        {
          "mode": 4,
          "attributes": {
            "POSITION": 0,
            "NORMAL": 1,
            "TEXCOORD_0": 2
          },
          "extras": {
            "parameters": {
              "width": 18,
              "radialSegments": 64,
              "heightSegments": 1,
              "openEnded": false,
              "thetaStart": 0,
              "thetaLength": 360,
              "cornerRadius": 2,
              "cornerSegments": 8,
              "hollow": 0.44,
              "depth": 18,
              "height": 18,
              "radiusTop": 9,
              "radiusBottom": 9,
              "type": "CylinderGeometry"
            },
            "type": "CylinderGeometry"
          },
          "indices": 3
        }
      ]
    },
    {
      "primitives": [
        {
          "mode": 4,
          "attributes": {
            "POSITION": 4,
            "NORMAL": 5,
            "TEXCOORD_0": 6
          },
          "extras": {
            "parameters": {
              "width": 18,
              "radialSegments": 64,
              "heightSegments": 1,
              "openEnded": false,
              "thetaStart": 0,
              "thetaLength": 360,
              "cornerRadius": 2,
              "cornerSegments": 8,
              "hollow": 0.44,
              "depth": 18,
              "height": 18,
              "radiusTop": 9,
              "radiusBottom": 9,
              "type": "CylinderGeometry"
            },
            "type": "CylinderGeometry"
          },
          "indices": 7
        }
      ]
    },
    {
      "primitives": [
        {
          "mode": 4,
          "attributes": {
            "POSITION": 8,
            "NORMAL": 9,
            "TEXCOORD_0": 10
          },
          "extras": {
            "parameters": {
              "width": 18,
              "radialSegments": 64,
              "heightSegments": 1,
              "openEnded": false,
              "thetaStart": 0,
              "thetaLength": 360,
              "cornerRadius": 2,
              "cornerSegments": 8,
              "hollow": 0.44,
              "depth": 18,
              "height": 18,
              "radiusTop": 9,
              "radiusBottom": 9,
              "type": "CylinderGeometry"
            },
            "type": "CylinderGeometry"
          },
          "indices": 11
        }
      ]
    },
    {
      "primitives": [
        {
          "mode": 4,
          "attributes": {
            "POSITION": 12,
            "NORMAL": 13
          },
          "extras": {
            "type": "SubdivGeometry",
            "parameters": {
              "width": 165.1526107788086,
              "height": 124.70038986206055,
              "depth": 88.17515563964844
            }
          },
          "indices": 14
        }
      ]
    }
  ],
  "cameras": [
    {
      "type": "orthographic",
      "orthographic": {
        "xmag": 14.470461787477168,
        "ymag": 7.257840990281517,
        "zfar": 100000,
        "znear": 0
      }
    }
  ]
}